<svg xmlns="http://www.w3.org/2000/svg" viewBox="0 0 64 64" role="img" aria-labelledby="title">
  <title id="title">Marine Conservation UI ocean turtle icon</title>
  <defs>
    <linearGradient id="sea" x1="0" y1="0" x2="0" y2="1">
      <stop offset="0" stop-color="#7ddbd3"/>
      <stop offset="1" stop-color="#0e6070"/>
    </linearGradient>
  </defs>
  <circle cx="32" cy="32" r="30" fill="#0b2f3a"/>
  <circle cx="32" cy="32" r="27" fill="url(#sea)"/>
  <path d="M7 25c8-9 15-10 24-4 8 6 16 5 26-4-3 9-10 14-19 14-9 0-16-5-22-3-4 1-7 3-9 5z" fill="#e9fbf7"/>
  <path d="M9 28c7-5 13-6 19-2 10 7 19 6 28-2-4 8-12 12-21 11-8-1-13-5-19-4-3 0-5 1-7 2z" fill="#16849a"/>
  <g transform="translate(17 31) rotate(-10 15 9)" fill="#073b4c">
    <ellipse cx="16" cy="10" rx="10" ry="7"/>
    <circle cx="27" cy="9" r="4"/>
    <path d="M7 8 1 4l2 7zM10 15 4 20l8-1zM19 16l2 7 4-7zM19 4l2-4 5 6z"/>
    <path d="M11 7c3-2 7-2 10 0M10 11c4 2 8 2 12 0" fill="none" stroke="#78d4cb" stroke-width="1.5" stroke-linecap="round"/>
  </g>
  <circle cx="48" cy="16" r="6" fill="#fff4c9"/>
</svg>
